<!-- <?xml version="1.0" encoding="UTF-8" standalone="no"?> -->
<!-- Created with Inkscape (http://www.inkscape.org/) -->

<svg
   width="100"
   height="100"
   viewBox="0 0 26.458333 26.458333"
   version="1.1"
   id="svg5"
   xmlns:xlink="http://www.w3.org/1999/xlink"
   xmlns="http://www.w3.org/2000/svg"
   xmlns:svg="http://www.w3.org/2000/svg">
  <defs
     id="defs2">
    <symbol
       id="Campground">
      <title
         id="title2766">Campground</title>
      <path
         d="M 15.875,14.948958 9.525,2.9104167 3.175,14.948958 H 1.984375 V 15.875 h 15.08125 v -0.926042 z m -9.6572917,0 L 9.525,8.5989583 12.832292,14.948958 Z"
         style="stroke:none;stroke-width:0.264583"
         id="path2768" />
    </symbol>
  </defs>
  <g
     id="layer1">
    <use
       xlink:href="#Campground"
       style="fill:#000000;stroke:#000000"
       id="use4884"
       x="0"
       y="0"
       width="100%"
       height="100%"
       transform="matrix(1.7215515,0,0,2.0225349,-3.2311739,-5.7456833)" />
    <path
       style="fill:#c8b7b7;stroke-width:0.170285"
       d="m 28.573554,92.070923 c 2.524368,-5.909556 21.177126,-47.663579 21.25432,-47.577596 0.120472,0.134187 21.266175,47.83311 21.266175,47.970675 0,0.04729 -9.613155,0.08598 -21.362567,0.08598 H 28.368918 Z"
       id="path5015"
       transform="scale(0.26458333)" />
    <path
       style="fill:#c8b7b7;stroke-width:0.170285"
       d="m 28.522762,92.49638 c 0,-0.225832 11.828455,-26.844418 17.796307,-40.048555 1.566207,-3.465303 2.965338,-6.587906 3.109182,-6.93912 0.143841,-0.351213 0.31358,-0.638569 0.377195,-0.638569 0.156586,0 21.180879,47.333471 21.072453,47.441897 -0.09719,0.09719 -42.355137,0.28112 -42.355137,0.184347 z"
       id="path5572"
       transform="scale(0.26458333)" />
    <path
       style="fill:#f2f2f2;stroke-width:0.170285"
       d="m 28.522762,92.49899 c 0,-0.226213 7.507263,-17.165374 15.410738,-34.772325 2.312257,-5.151126 4.556568,-10.151124 4.987359,-11.111106 0.430789,-0.959983 0.83132,-1.745423 0.890068,-1.745423 0.102088,0 3.58604,7.773014 12.478923,27.841622 6.121022,13.813337 8.635884,19.55244 8.58857,19.599755 -0.09583,0.09583 -42.355658,0.28288 -42.355658,0.187477 z"
       id="path5722"
       transform="scale(0.26458333)" />
    <path
       style="fill:#e3dbdb;stroke-width:0.170285"
       d="m 28.693047,92.303779 c 0,-0.268621 18.727102,-42.291062 20.778115,-46.624788 0.121894,-0.257557 0.274544,-0.468285 0.339222,-0.468285 0.06468,0 0.349781,0.517242 0.63356,1.149425 5.081598,11.320445 18.703357,42.02523 19.849366,44.742422 l 0.43092,1.021711 -2.411939,0.106316 c -2.748137,0.121136 -39.619244,0.189257 -39.619244,0.0732 z"
       id="path5798"
       transform="scale(0.26458333)" />
  </g>
</svg>
